<svg width="94" height="38" viewBox="0 0 94 38" fill="none" xmlns="http://www.w3.org/2000/svg">
<path fill-rule="evenodd" clip-rule="evenodd" d="M27.7248 14.5386C29.5882 15.8429 30.8541 18.3996 30.8544 21.3391C30.8544 25.2426 28.6234 28.4694 25.7257 28.9901L25.6946 28.9957L25.6632 29.0017L25.6315 29.0065L25.6004 29.0112L25.5693 29.0159L25.5378 29.0206L25.5064 29.0253L25.4756 29.0288L25.4442 29.0322L25.4128 29.0361L25.382 29.0395L25.3506 29.0425L25.3198 29.0451L25.289 29.0477L25.2579 29.0502L25.2271 29.0524L25.1964 29.0545L25.1653 29.0558L25.1348 29.0575L25.1041 29.0588L25.073 29.0605L25.0422 29.0614L25.0117 29.0618L24.981 29.0627L24.9505 29.0631L24.9198 29.0636L24.9036 29.064L24.8887 29.0636L24.8582 29.0631L24.8278 29.0627L24.797 29.0618L24.7663 29.0614L24.7358 29.0605L24.7054 29.0593L24.6746 29.0575L24.6442 29.0563L24.6134 29.0545L24.5833 29.0528L24.5528 29.0502L24.5224 29.0477L24.4923 29.0455L24.4619 29.0429L24.4314 29.0399L24.4013 29.0365L24.3712 29.0331L24.3408 29.0292L24.3107 29.0258L24.2805 29.0219L24.2504 29.0172L24.2203 29.0129L24.1906 29.0086L24.1604 29.0039L24.1307 28.9987L24.1009 28.9936L24.0708 28.9884L24.041 28.9828L24.0112 28.9777L23.9814 28.9717L23.9513 28.9652L23.9219 28.9588L23.8921 28.9524L23.8627 28.9459L23.8332 28.939L23.8034 28.9317L23.774 28.9244L23.7446 28.9172L23.7148 28.9099L23.6853 28.9021L23.6559 28.8935L23.6264 28.8854L23.5967 28.8772L23.5672 28.8686L23.5378 28.8596L23.5086 28.8502L23.4792 28.8412L23.4498 28.8317L23.4206 28.8223L23.3912 28.812L23.3617 28.8017L23.3326 28.7914L23.3035 28.7815L23.2741 28.7712L23.245 28.7596L23.2155 28.7484L23.1867 28.7373L23.1576 28.7265L23.1282 28.7149L23.0994 28.7025L23.0706 28.69L23.0415 28.678L23.0127 28.6656L22.9839 28.6531L22.9548 28.6398L22.9263 28.6269L22.8972 28.6136L22.8684 28.6003L22.8396 28.5866L22.8112 28.5724L22.7824 28.5582L22.754 28.5445L22.7255 28.5303L22.6967 28.5153L22.6683 28.5003L22.6398 28.4853L22.6114 28.4702L22.5829 28.4552L22.5544 28.4389L22.526 28.423L22.4975 28.4067L22.4691 28.3908L22.4406 28.3741L22.4122 28.3569L22.384 28.3401L22.3556 28.323L22.3275 28.3058L22.2993 28.2873L22.2709 28.2693L22.2428 28.2513L22.2143 28.2328L22.1862 28.2143L22.1581 28.1955L22.1303 28.1761L22.1018 28.1568L22.074 28.1379L22.0462 28.1177L22.0181 28.0976L21.9903 28.0774L21.9629 28.0572L21.9347 28.0366L21.9073 28.0156L21.8795 27.9941L21.8514 27.9731L21.8239 27.9516L21.7964 27.9297L21.769 27.907L21.7415 27.8846L21.7141 27.8623L21.6866 27.8395L21.6591 27.8164L21.6317 27.7927L21.6042 27.7691L21.5767 27.7455L21.5493 27.7211L21.5218 27.6962L21.4944 27.6721L21.4672 27.6476L21.4398 27.6223L21.4126 27.5965L21.3855 27.5712L21.3584 27.5455L21.3312 27.5193L21.3044 27.4922L21.277 27.4652L21.2502 27.4386L21.2231 27.4111L21.1963 27.3832L21.1695 27.3553L21.1427 27.3274L21.1159 27.299L21.0894 27.2698L21.0629 27.2402L21.0361 27.211L21.0097 27.1814L20.9835 27.1513L20.957 27.1209L20.9306 27.0904L20.9038 27.0595L20.8776 27.0281L20.8515 26.9968L20.8254 26.9646L20.7989 26.9332L20.7728 26.9002L20.7466 26.8671L20.7205 26.8341L20.6947 26.801L20.6685 26.7667L20.6424 26.7323L20.6166 26.698L20.5905 26.6628L20.5646 26.6271L20.5392 26.5915L20.5134 26.5554L20.4879 26.5194L20.4624 26.482L20.4369 26.4451L20.4115 26.4077L20.3863 26.3695L20.3608 26.3305L20.3357 26.2918L20.3105 26.2532L20.2854 26.2124L20.2606 26.1721L20.2354 26.1321L20.2106 26.0905L20.1858 26.0484L20.161 26.0063L20.1362 25.9643L20.1117 25.9209L20.0869 25.8771L20.0624 25.8333L20.0379 25.7891L20.0138 25.7436L19.9893 25.6972L19.9651 25.6517L19.941 25.6045L19.9171 25.5568L19.893 25.5096L19.8692 25.4607L19.8454 25.4109L19.8215 25.3611L19.798 25.3104L19.7745 25.2589L19.7511 25.2074L19.7276 25.1545L19.7044 25.1005L19.6812 25.0464L19.6584 24.9914L19.6353 24.9347L19.6124 24.8785L19.5896 24.821L19.5668 24.7621L19.5443 24.7033L19.5221 24.6428L19.4999 24.5814L19.4781 24.52L19.4563 24.4556L19.4344 24.3904L19.4126 24.3251L19.3914 24.2573L19.3699 24.1894L19.3491 24.1194L19.3282 24.0482L19.3074 23.9761L19.2869 23.9014L19.2667 23.8262L19.2468 23.7477L19.2273 23.6687L19.2078 23.5871L19.1883 23.5029L19.1697 23.4179L19.1512 23.3295L19.1327 23.2393L19.1151 23.1457L19.0979 23.0496L19.0811 22.9491L19.0648 22.8456L19.049 22.7379L19.0341 22.625L19.0195 22.5091L19.006 22.3841L18.9934 22.254L18.9818 22.1179L18.9715 21.9685L18.9633 21.8088L18.9567 21.6337L18.953 21.4383L18.952 21.3409L18.9534 21.2155C18.9631 20.3786 19.0777 19.5493 19.2928 18.7602L19.352 18.5528L19.4076 18.3738L19.4602 18.2149L19.5109 18.0716L19.5601 17.9385L19.6078 17.8148L19.6541 17.7006L19.7001 17.5916L19.7451 17.4881L19.7891 17.3919L19.8331 17.2979L19.8761 17.2077L19.9185 17.1227L19.9608 17.0395L20.0022 16.9609L20.0435 16.8836L20.0842 16.8102L20.1249 16.7385L20.165 16.6694L20.2053 16.6015L20.245 16.5363L20.2844 16.4727L20.3238 16.4105L20.3628 16.3504L20.4015 16.2907L20.4402 16.234L20.4786 16.1782L20.517 16.1237L20.555 16.0709L20.5928 16.0181L20.6305 15.9679L20.6682 15.9176L20.7056 15.8687L20.7426 15.8215L20.78 15.7742L20.8174 15.7283L20.8541 15.6841L20.8912 15.6394L20.9276 15.5969L20.964 15.5553L21.0007 15.5128L21.0368 15.4729L21.0732 15.4329L21.1096 15.393L21.1453 15.3548L21.181 15.3179L21.2171 15.2801L21.2528 15.244L21.2886 15.2084L21.324 15.1728L21.3594 15.1384L21.3944 15.1049L21.4298 15.0714L21.4649 15.0384L21.5 15.007L21.5351 14.9757L21.5701 14.9444L21.6049 14.9143L21.6399 14.8842L21.6747 14.8546L21.7094 14.8254L21.7442 14.7971L21.7786 14.7692L21.813 14.7413L21.8474 14.7142L21.8815 14.688L21.9155 14.6614L21.95 14.6352L21.984 14.6108L22.0178 14.5859L22.0519 14.5614L22.0859 14.5374L22.1197 14.5142L22.1538 14.491L22.1875 14.4678L22.2213 14.4459L22.255 14.424L22.2888 14.4025L22.3222 14.3806L22.3559 14.36L22.3893 14.3399L22.4228 14.3197L22.4562 14.2991L22.4896 14.2802L22.5227 14.2613L22.5561 14.2424L22.5892 14.2239L22.6223 14.2059L22.6554 14.1887L22.6884 14.1711L22.7215 14.1535L22.7543 14.1368L22.7874 14.1205L22.8201 14.1042L22.8529 14.0878L22.886 14.0728L22.9187 14.0578L22.9515 14.0428L22.9842 14.0277L23.017 14.014L23.0494 14.0003L23.0822 13.9865L23.1149 13.9728L23.1473 13.9595L23.1798 13.9475L23.2122 13.935L23.2446 13.9226L23.277 13.9101L23.3095 13.8989L23.3416 13.8878L23.3737 13.8762L23.4061 13.865L23.4382 13.8543L23.4699 13.844L23.5024 13.8341L23.5341 13.8238L23.5662 13.8139L23.5983 13.8049L23.6301 13.7959L23.6622 13.7869L23.6943 13.7774L23.726 13.7693L23.7578 13.7616L23.7899 13.7538L23.8216 13.7457L23.8534 13.738L23.8852 13.7311L23.9169 13.7246L23.9484 13.7178L23.9805 13.7113L24.0119 13.7049L24.0437 13.6989L24.0754 13.6933L24.1065 13.6873L24.1379 13.6817L24.1697 13.6766L24.2008 13.6718L24.2319 13.6671L24.2637 13.6624L24.2948 13.6577L24.3259 13.6542L24.357 13.6504L24.3881 13.6469L24.4195 13.6431L24.4506 13.6396L24.4814 13.6371L24.5125 13.6345L24.5436 13.6319L24.5744 13.6293L24.6051 13.6268L24.6362 13.6255L24.667 13.6237L24.6978 13.6225L24.7285 13.6212L24.7593 13.6199L24.7901 13.619L24.8208 13.6182L24.8516 13.6177L24.8821 13.6173L24.9065 13.6169H24.9128L24.9433 13.6177L24.9737 13.6186L25.0045 13.619L25.0352 13.6195L25.0657 13.6203L25.0965 13.6216L25.1269 13.6233L25.1577 13.6246L25.1881 13.6259L25.2185 13.6276L25.249 13.6302L25.2791 13.6323L25.3095 13.6349L25.34 13.6375L25.3704 13.6401L25.4005 13.6435L25.4306 13.6474L25.4607 13.6508L25.4908 13.6542L25.5216 13.6577L25.5514 13.6624L25.5812 13.6667L25.6116 13.6714L25.6414 13.6757L25.6712 13.6804L25.7013 13.686L25.731 13.6912L25.7608 13.6967L25.7906 13.7023L25.8204 13.7079L25.8502 13.7143L25.8803 13.7208L25.9097 13.7272L25.9392 13.7337L25.9689 13.7401L25.9984 13.7474L26.0278 13.7547L26.0576 13.7624L26.087 13.7697L26.1165 13.7774L26.1459 13.786L26.1754 13.7942L26.2048 13.8023L26.2346 13.8105L26.2641 13.8191L26.2935 13.8285L26.323 13.838L26.3524 13.8474L26.3818 13.8569L26.4113 13.8667L26.4404 13.8771L26.4699 13.8874L26.4993 13.8977L26.5284 13.908L26.5575 13.9187L26.587 13.9299L26.6161 13.941L26.6452 13.9522L26.6743 13.9633L26.7031 13.9758L26.7322 13.9878L26.7613 14.0003L26.7901 14.0123L26.8189 14.0247L26.8477 14.0376L26.8765 14.0509L26.9053 14.0638L26.9344 14.0775L26.9632 14.0909L26.9916 14.105L27.0204 14.1192L27.0489 14.1334L27.0773 14.1471L27.1061 14.1621L27.1346 14.1771L27.163 14.1922L27.1915 14.2072L27.2199 14.2222L27.2484 14.2381L27.2772 14.2544L27.3056 14.2703L27.3341 14.2866L27.3625 14.3029L27.391 14.3197L27.4191 14.3369L27.4475 14.354L27.476 14.3712L27.5041 14.3888L27.5326 14.4073L27.5607 14.4253L27.5892 14.4438L27.6173 14.4618L27.6454 14.4807L27.6735 14.4996L27.7017 14.5189L27.7294 14.5378L27.7248 14.5386Z" fill="white"/>
<path fill-rule="evenodd" clip-rule="evenodd" d="M23.3142 29.662C24.0361 26.0454 22.2177 22.6692 20.2484 23.0294C20.2484 23.0294 20.4704 21.3035 21.9299 20.7308C23.3899 20.1585 23.8839 21.331 23.8839 21.331C23.8839 21.331 23.028 19.7111 23.3989 17.9921C23.7698 16.2731 24.991 15.5239 24.991 15.5239L24.9768 15.5132C24.9768 15.5132 26.1897 16.2856 26.5407 18.0114C26.8928 19.7386 26.0196 21.3421 26.0196 21.3421C26.0196 21.3421 26.5272 20.1778 27.9793 20.7776C29.4321 21.3773 29.6356 23.1067 29.6356 23.1067C27.4493 22.4528 25.6226 26.0085 26.4967 29.6809L23.3142 29.6612V29.662Z" fill="#2B6BCC"/>
<path d="M15.4211 19.6184C13.8548 20.6085 12.0477 21.234 9.91922 21.234C8.23249 21.234 6.90706 20.5565 6.14442 19.2535C5.74276 18.5241 5.54193 17.3774 5.50189 16.6484C13.4131 16.909 18.2725 14.564 18.2725 8.1018C18.2725 3.35948 15.4211 0.441364 11.4455 0.441364C4.33726 0.441364 0 8.51867 0 16.2834C0 22.9534 2.8914 27.0792 8.47336 27.0792C10.6822 27.0792 13.5335 26.558 15.8224 25.0382L15.4208 19.6189L15.4211 19.6184ZM12.851 8.04943C12.851 10.4463 10.6021 11.2281 6.06369 11.1762C6.46536 8.83122 8.03166 5.9131 10.7222 5.9131C12.0477 5.9131 12.851 6.7988 12.851 8.04943Z" fill="white"/>
<path d="M73.4383 0.804556L80.5869 26.2867H86.6909L94 0.804556H87.5747L85.0446 12.6337C84.6029 14.8224 84.2819 16.7505 83.9603 18.8353H83.8399C83.5186 16.8029 83.197 14.8229 82.7153 12.6337L80.0648 0.804556H73.4383ZM51.7196 8.41261C51.7196 4.60837 51.7996 2.47162 51.88 0.804556H46.5793L46.3785 3.87938H46.2981C45.2942 1.74263 43.6075 0.231836 40.9169 0.231836C36.0576 0.231836 32.0012 5.44255 32.0012 13.6761C32.0012 20.9721 35.4551 26.0785 40.3144 26.0785C42.5633 26.0785 44.4509 24.8802 45.6155 22.7954H45.6959V24.411C45.6959 29.1619 43.4874 31.1419 40.5957 31.1419C38.2664 31.1419 36.1383 30.1519 34.8933 29.2138L33.6886 35.2587C35.4554 36.5093 38.146 37.1868 40.7565 37.1868C43.6479 37.1868 46.5796 36.4574 48.7081 34.06C50.9569 31.5068 51.7202 27.4944 51.7202 22.5872V8.41305L51.7196 8.41261ZM45.6152 14.9263C45.6152 15.6038 45.5751 16.4376 45.4143 17.0626C45.0127 18.8864 43.768 20.2414 42.1613 20.2414C39.6315 20.2414 38.1857 17.2713 38.1857 13.4671C38.1857 8.82906 39.9525 6.22349 42.2013 6.22349C43.8881 6.22349 45.0527 7.63082 45.4944 9.71476C45.5742 10.1943 45.6146 10.6835 45.6148 11.174V14.9259L45.6152 14.9263ZM64.1365 0.000429089C57.7912 0.000429089 53.6144 5.26352 53.6144 13.5491C53.6144 21.7826 58.0321 26.6894 63.7748 26.6894C69.0358 26.6894 74.1361 22.4077 74.1361 13.0798C74.1361 5.36742 70.1201 0.000429089 64.1365 0.000429089ZM63.9356 5.68039C66.7066 5.68039 67.8312 9.53659 67.8312 13.2885C67.8312 17.926 66.3453 21.0008 63.9356 21.0008C61.3251 21.0008 59.9196 17.7178 59.9196 13.3404C59.9196 9.58854 61.0442 5.68039 63.9356 5.68039Z" fill="white"/>
</svg>
